<mxfile host="drawio-plugin" modified="2021-05-24T06:40:08.401Z" agent="5.0 (Macintosh; Intel Mac OS X 11_2_1) AppleWebKit/537.36 (KHTML, like Gecko) Chrome/87.0.4280.141 Safari/537.36" etag="qlu2o7mxsR5DP61c3cxl" version="14.6.6" type="embed" pages="2"><diagram id="_a59ZutNf0DHEnmNZCll" name="Life Cycle"><mxGraphModel dx="831" dy="590" grid="0" gridSize="10" guides="1" tooltips="1" connect="1" arrows="1" fold="1" page="1" pageScale="1" pageWidth="850" pageHeight="1100" math="0" shadow="0"><root><mxCell id="0"/><mxCell id="1" parent="0"/><mxCell id="2" value="" style="group;container=1;" parent="1" vertex="1" connectable="0"><mxGeometry x="100" y="80" width="626" height="1000.0000000000001" as="geometry"/></mxCell><mxCell id="3" value="SunistOS Summary" style="swimlane;html=1;childLayout=stackLayout;resizeParent=1;resizeParentMax=0;startSize=20;horizontal=0;horizontalStack=1;" parent="2" vertex="1"><mxGeometry width="500" height="1000" as="geometry"/></mxCell><mxCell id="4" value="MemoryController" style="swimlane;html=1;startSize=20;" parent="3" vertex="1"><mxGeometry x="20" width="120" height="1000" as="geometry"/></mxCell><mxCell id="5" value="5. alloc memory" style="rounded=0;whiteSpace=wrap;html=1;" parent="4" vertex="1"><mxGeometry x="10" y="150" width="100" height="30" as="geometry"/></mxCell><mxCell id="6" value="6. replace" style="rounded=0;whiteSpace=wrap;html=1;" parent="4" vertex="1"><mxGeometry x="10" y="230" width="100" height="30" as="geometry"/></mxCell><mxCell id="7" value="12. free memory" style="rounded=0;whiteSpace=wrap;html=1;" parent="4" vertex="1"><mxGeometry x="10" y="400" width="100" height="30" as="geometry"/></mxCell><mxCell id="8" value="5. 分配内存空间，确定上下文" style="text;html=1;strokeColor=none;fillColor=none;align=left;verticalAlign=middle;whiteSpace=wrap;rounded=0;" parent="4" vertex="1"><mxGeometry x="10" y="691" width="100" height="20" as="geometry"/></mxCell><mxCell id="9" value="6. 发生缺页中断，分配新页" style="text;html=1;strokeColor=none;fillColor=none;align=left;verticalAlign=middle;whiteSpace=wrap;rounded=0;" parent="4" vertex="1"><mxGeometry x="10" y="718" width="100" height="20" as="geometry"/></mxCell><mxCell id="10" value="12. 释放内存" style="text;html=1;strokeColor=none;fillColor=none;align=left;verticalAlign=middle;whiteSpace=wrap;rounded=0;" parent="4" vertex="1"><mxGeometry x="10" y="960" width="100" height="20" as="geometry"/></mxCell><mxCell id="11" value="ProcessController" style="swimlane;html=1;startSize=20;" parent="3" vertex="1"><mxGeometry x="140" width="120" height="1000" as="geometry"/></mxCell><mxCell id="12" value="4. create process" style="rounded=0;whiteSpace=wrap;html=1;" parent="11" vertex="1"><mxGeometry x="10" y="110" width="100" height="30" as="geometry"/></mxCell><mxCell id="13" value="7. queuing" style="rounded=0;whiteSpace=wrap;html=1;" parent="11" vertex="1"><mxGeometry x="10" y="190" width="100" height="30" as="geometry"/></mxCell><mxCell id="14" value="11. free process" style="rounded=0;whiteSpace=wrap;html=1;" parent="11" vertex="1"><mxGeometry x="10" y="360" width="100" height="30" as="geometry"/></mxCell><mxCell id="15" value="4. 创建进程，准备执行程序" style="text;html=1;strokeColor=none;fillColor=none;align=left;verticalAlign=middle;whiteSpace=wrap;rounded=0;" parent="11" vertex="1"><mxGeometry x="10" y="660" width="100" height="20" as="geometry"/></mxCell><mxCell id="16" value="7. 等待进程调度" style="text;html=1;strokeColor=none;fillColor=none;align=left;verticalAlign=middle;whiteSpace=wrap;rounded=0;" parent="11" vertex="1"><mxGeometry x="10" y="720" width="100" height="20" as="geometry"/></mxCell><mxCell id="17" value="11. 清理进程" style="text;html=1;strokeColor=none;fillColor=none;align=left;verticalAlign=middle;whiteSpace=wrap;rounded=0;" parent="11" vertex="1"><mxGeometry x="10" y="900" width="100" height="20" as="geometry"/></mxCell><mxCell id="18" value="DeviceController" style="swimlane;html=1;startSize=20;swimlaneLine=1;" parent="3" vertex="1"><mxGeometry x="260" width="120" height="1000" as="geometry"/></mxCell><mxCell id="19" value="1. input" style="rounded=0;whiteSpace=wrap;html=1;" parent="18" vertex="1"><mxGeometry x="10" y="30" width="100" height="30" as="geometry"/></mxCell><mxCell id="20" value="10. output" style="rounded=0;whiteSpace=wrap;html=1;" parent="18" vertex="1"><mxGeometry x="10" y="310" width="100" height="30" as="geometry"/></mxCell><mxCell id="21" value="1. 用户输入执行程序指令" style="text;html=1;strokeColor=none;fillColor=none;align=left;verticalAlign=middle;whiteSpace=wrap;rounded=0;" parent="18" vertex="1"><mxGeometry x="10" y="530" width="100" height="20" as="geometry"/></mxCell><mxCell id="22" value="10. 输出结果" style="text;html=1;strokeColor=none;fillColor=none;align=left;verticalAlign=middle;whiteSpace=wrap;rounded=0;" parent="18" vertex="1"><mxGeometry x="10" y="860" width="100" height="20" as="geometry"/></mxCell><mxCell id="23" value="DeviceController" style="swimlane;html=1;startSize=20;" parent="3" vertex="1"><mxGeometry x="380" width="120" height="1000" as="geometry"/></mxCell><mxCell id="24" value="2./3. load file" style="rounded=0;whiteSpace=wrap;html=1;" parent="23" vertex="1"><mxGeometry x="10" y="70" width="100" height="30" as="geometry"/></mxCell><mxCell id="25" value="10. write file" style="rounded=0;whiteSpace=wrap;html=1;" parent="23" vertex="1"><mxGeometry x="10" y="270" width="100" height="30" as="geometry"/></mxCell><mxCell id="26" value="2. 操作系统寻找该文件，确定其类型" style="text;html=1;strokeColor=none;fillColor=none;align=left;verticalAlign=middle;whiteSpace=wrap;rounded=0;" parent="23" vertex="1"><mxGeometry x="10" y="600" width="100" height="20" as="geometry"/></mxCell><mxCell id="27" value="3. 操作系统读取其数据" style="text;html=1;strokeColor=none;fillColor=none;align=left;verticalAlign=middle;whiteSpace=wrap;rounded=0;" parent="23" vertex="1"><mxGeometry x="10" y="630" width="100" height="20" as="geometry"/></mxCell><mxCell id="28" value="10. 写入文件" style="text;html=1;strokeColor=none;fillColor=none;align=left;verticalAlign=middle;whiteSpace=wrap;rounded=0;" parent="23" vertex="1"><mxGeometry x="10" y="860" width="100" height="20" as="geometry"/></mxCell><mxCell id="29" style="edgeStyle=orthogonalEdgeStyle;rounded=0;orthogonalLoop=1;jettySize=auto;html=1;exitX=0.5;exitY=1;exitDx=0;exitDy=0;entryX=0;entryY=0.5;entryDx=0;entryDy=0;" parent="3" source="19" target="24" edge="1"><mxGeometry relative="1" as="geometry"/></mxCell><mxCell id="30" style="edgeStyle=orthogonalEdgeStyle;rounded=0;orthogonalLoop=1;jettySize=auto;html=1;exitX=0.5;exitY=1;exitDx=0;exitDy=0;entryX=1;entryY=0.5;entryDx=0;entryDy=0;" parent="3" source="24" target="12" edge="1"><mxGeometry relative="1" as="geometry"/></mxCell><mxCell id="31" style="edgeStyle=orthogonalEdgeStyle;rounded=0;orthogonalLoop=1;jettySize=auto;html=1;exitX=0.5;exitY=1;exitDx=0;exitDy=0;entryX=1;entryY=0.5;entryDx=0;entryDy=0;" parent="3" source="12" target="5" edge="1"><mxGeometry relative="1" as="geometry"/></mxCell><mxCell id="32" style="edgeStyle=orthogonalEdgeStyle;rounded=0;orthogonalLoop=1;jettySize=auto;html=1;exitX=0.5;exitY=1;exitDx=0;exitDy=0;entryX=0;entryY=0.5;entryDx=0;entryDy=0;" parent="3" source="5" target="13" edge="1"><mxGeometry relative="1" as="geometry"/></mxCell><mxCell id="33" style="edgeStyle=orthogonalEdgeStyle;rounded=0;orthogonalLoop=1;jettySize=auto;html=1;exitX=0.25;exitY=1;exitDx=0;exitDy=0;entryX=1;entryY=0.5;entryDx=0;entryDy=0;" parent="3" source="13" target="6" edge="1"><mxGeometry relative="1" as="geometry"/></mxCell><mxCell id="34" style="edgeStyle=orthogonalEdgeStyle;rounded=0;orthogonalLoop=1;jettySize=auto;html=1;exitX=0.5;exitY=0;exitDx=0;exitDy=0;entryX=0;entryY=0.5;entryDx=0;entryDy=0;" parent="3" source="6" target="13" edge="1"><mxGeometry relative="1" as="geometry"/></mxCell><mxCell id="35" style="edgeStyle=orthogonalEdgeStyle;rounded=0;orthogonalLoop=1;jettySize=auto;html=1;exitX=0.5;exitY=1;exitDx=0;exitDy=0;entryX=1;entryY=0.5;entryDx=0;entryDy=0;" parent="3" source="14" target="7" edge="1"><mxGeometry relative="1" as="geometry"/></mxCell><mxCell id="36" style="edgeStyle=orthogonalEdgeStyle;rounded=0;orthogonalLoop=1;jettySize=auto;html=1;exitX=0.5;exitY=1;exitDx=0;exitDy=0;entryX=1;entryY=0.5;entryDx=0;entryDy=0;" parent="3" source="27" target="15" edge="1"><mxGeometry relative="1" as="geometry"/></mxCell><mxCell id="37" style="edgeStyle=orthogonalEdgeStyle;rounded=0;orthogonalLoop=1;jettySize=auto;html=1;exitX=0;exitY=0.5;exitDx=0;exitDy=0;entryX=0.5;entryY=0;entryDx=0;entryDy=0;" parent="3" source="15" target="8" edge="1"><mxGeometry relative="1" as="geometry"/></mxCell><mxCell id="38" style="edgeStyle=orthogonalEdgeStyle;rounded=0;orthogonalLoop=1;jettySize=auto;html=1;exitX=0.5;exitY=1;exitDx=0;exitDy=0;entryX=0;entryY=0.5;entryDx=0;entryDy=0;" parent="3" source="9" target="16" edge="1"><mxGeometry relative="1" as="geometry"/></mxCell><mxCell id="39" style="edgeStyle=orthogonalEdgeStyle;rounded=0;orthogonalLoop=1;jettySize=auto;html=1;exitX=0.5;exitY=1;exitDx=0;exitDy=0;" parent="3" source="17" target="10" edge="1"><mxGeometry relative="1" as="geometry"/></mxCell><mxCell id="40" style="edgeStyle=orthogonalEdgeStyle;rounded=0;orthogonalLoop=1;jettySize=auto;html=1;exitX=0.5;exitY=1;exitDx=0;exitDy=0;entryX=0.5;entryY=0;entryDx=0;entryDy=0;" parent="3" source="21" target="26" edge="1"><mxGeometry relative="1" as="geometry"/></mxCell><mxCell id="41" value="FileSystem" style="swimlane;html=1;startSize=20;" parent="2" vertex="1"><mxGeometry x="380" width="120" height="1000.0000000000001" as="geometry"/></mxCell><mxCell id="42" value="Operator" style="swimlane;html=1;startSize=20;" parent="2" vertex="1"><mxGeometry x="500" width="126" height="1000.0000000000001" as="geometry"/></mxCell><mxCell id="43" value="8./9. running" style="rounded=0;whiteSpace=wrap;html=1;" parent="42" vertex="1"><mxGeometry x="13" y="230" width="100" height="30" as="geometry"/></mxCell><mxCell id="44" value="8. 执行程序" style="text;html=1;strokeColor=none;fillColor=none;align=left;verticalAlign=middle;whiteSpace=wrap;rounded=0;" parent="42" vertex="1"><mxGeometry x="13" y="780" width="100" height="20" as="geometry"/></mxCell><mxCell id="45" value="9. 执行时间过长，重新进入调度队列" style="text;html=1;strokeColor=none;fillColor=none;align=left;verticalAlign=middle;whiteSpace=wrap;rounded=0;" parent="42" vertex="1"><mxGeometry x="13" y="800" width="100" height="20" as="geometry"/></mxCell><mxCell id="46" style="edgeStyle=orthogonalEdgeStyle;rounded=0;orthogonalLoop=1;jettySize=auto;html=1;exitX=1;exitY=0.5;exitDx=0;exitDy=0;" parent="2" source="13" target="43" edge="1"><mxGeometry relative="1" as="geometry"/></mxCell><mxCell id="47" style="edgeStyle=orthogonalEdgeStyle;rounded=0;orthogonalLoop=1;jettySize=auto;html=1;exitX=0;exitY=0.5;exitDx=0;exitDy=0;entryX=0.75;entryY=1;entryDx=0;entryDy=0;" parent="2" source="43" target="13" edge="1"><mxGeometry relative="1" as="geometry"/></mxCell><mxCell id="48" style="edgeStyle=orthogonalEdgeStyle;rounded=0;orthogonalLoop=1;jettySize=auto;html=1;exitX=0.25;exitY=1;exitDx=0;exitDy=0;entryX=1;entryY=0.5;entryDx=0;entryDy=0;" parent="2" source="43" target="25" edge="1"><mxGeometry relative="1" as="geometry"/></mxCell><mxCell id="49" style="edgeStyle=orthogonalEdgeStyle;rounded=0;orthogonalLoop=1;jettySize=auto;html=1;exitX=0.5;exitY=1;exitDx=0;exitDy=0;entryX=1;entryY=0.5;entryDx=0;entryDy=0;" parent="2" source="43" target="20" edge="1"><mxGeometry relative="1" as="geometry"/></mxCell><mxCell id="50" style="edgeStyle=orthogonalEdgeStyle;rounded=0;orthogonalLoop=1;jettySize=auto;html=1;exitX=0.75;exitY=1;exitDx=0;exitDy=0;entryX=1;entryY=0.5;entryDx=0;entryDy=0;" parent="2" source="43" target="14" edge="1"><mxGeometry relative="1" as="geometry"/></mxCell><mxCell id="51" style="edgeStyle=orthogonalEdgeStyle;rounded=0;orthogonalLoop=1;jettySize=auto;html=1;exitX=1;exitY=0.5;exitDx=0;exitDy=0;entryX=0.5;entryY=0;entryDx=0;entryDy=0;" parent="2" source="16" target="44" edge="1"><mxGeometry relative="1" as="geometry"/></mxCell><mxCell id="52" style="edgeStyle=orthogonalEdgeStyle;rounded=0;orthogonalLoop=1;jettySize=auto;html=1;exitX=0.5;exitY=1;exitDx=0;exitDy=0;" parent="2" source="45" target="28" edge="1"><mxGeometry relative="1" as="geometry"/></mxCell><mxCell id="53" style="edgeStyle=orthogonalEdgeStyle;rounded=0;orthogonalLoop=1;jettySize=auto;html=1;exitX=0.5;exitY=1;exitDx=0;exitDy=0;" parent="2" source="45" target="22" edge="1"><mxGeometry relative="1" as="geometry"/></mxCell><mxCell id="54" style="edgeStyle=orthogonalEdgeStyle;rounded=0;orthogonalLoop=1;jettySize=auto;html=1;exitX=0.5;exitY=1;exitDx=0;exitDy=0;entryX=0.5;entryY=0;entryDx=0;entryDy=0;" parent="2" source="45" target="17" edge="1"><mxGeometry relative="1" as="geometry"><Array as="points"><mxPoint x="563" y="840"/><mxPoint x="200" y="840"/></Array></mxGeometry></mxCell><mxCell id="55" value="" style="endArrow=none;dashed=1;html=1;exitX=0;exitY=0.5;exitDx=0;exitDy=0;entryX=1;entryY=0.5;entryDx=0;entryDy=0;" parent="2" source="4" target="42" edge="1"><mxGeometry width="50" height="50" relative="1" as="geometry"><mxPoint x="36" y="600" as="sourcePoint"/><mxPoint x="626" y="480" as="targetPoint"/></mxGeometry></mxCell><mxCell id="56" value="&lt;h1&gt;SunistOS程序生命周期&lt;/h1&gt;&lt;div&gt;这是Hello World程序在SunistOS中的生命周期，包括文件读写、设备控制、内存管理、进程调度等流程。&lt;/div&gt;" style="text;html=1;strokeColor=none;fillColor=none;spacing=5;spacingTop=-20;whiteSpace=wrap;overflow=hidden;rounded=0;" parent="1" vertex="1"><mxGeometry x="100" y="10" width="620" height="70" as="geometry"/></mxCell><mxCell id="57" style="edgeStyle=orthogonalEdgeStyle;rounded=0;orthogonalLoop=1;jettySize=auto;html=1;exitX=0.5;exitY=1;exitDx=0;exitDy=0;" parent="1" source="56" target="56" edge="1"><mxGeometry relative="1" as="geometry"/></mxCell></root></mxGraphModel></diagram><diagram id="POvYRvtharse7NLkXvtz" name="Structure"><mxGraphModel dx="831" dy="590" grid="1" gridSize="10" guides="1" tooltips="1" connect="1" arrows="1" fold="1" page="1" pageScale="1" pageWidth="850" pageHeight="1100" math="0" shadow="0"><root><mxCell id="mdFqDs2wwSjSR7bPOeGR-0"/><mxCell id="mdFqDs2wwSjSR7bPOeGR-1" parent="mdFqDs2wwSjSR7bPOeGR-0"/><mxCell id="3EMqGSKkChauHCgJH6Eo-0" value="Disk" style="strokeWidth=2;html=1;shape=mxgraph.flowchart.direct_data;whiteSpace=wrap;fillColor=#dae8fc;strokeColor=#6c8ebf;" parent="mdFqDs2wwSjSR7bPOeGR-1" vertex="1"><mxGeometry x="675" y="450" width="100" height="60" as="geometry"/></mxCell><mxCell id="3EMqGSKkChauHCgJH6Eo-1" value="IO Bus" style="strokeWidth=2;html=1;shape=mxgraph.flowchart.terminator;whiteSpace=wrap;fillColor=#dae8fc;strokeColor=#6c8ebf;" parent="mdFqDs2wwSjSR7bPOeGR-1" vertex="1"><mxGeometry x="430" y="450" width="100" height="60" as="geometry"/></mxCell><mxCell id="3EMqGSKkChauHCgJH6Eo-2" value="FileSystem" style="shape=process;whiteSpace=wrap;html=1;backgroundOutline=1;fillColor=#f8cecc;strokeColor=#b85450;" parent="mdFqDs2wwSjSR7bPOeGR-1" vertex="1"><mxGeometry x="665" y="250" width="120" height="60" as="geometry"/></mxCell><mxCell id="3EMqGSKkChauHCgJH6Eo-3" value="" style="shape=link;html=1;entryX=0.5;entryY=1;entryDx=0;entryDy=0;exitX=0.5;exitY=0;exitDx=0;exitDy=0;exitPerimeter=0;" parent="mdFqDs2wwSjSR7bPOeGR-1" source="3EMqGSKkChauHCgJH6Eo-0" target="3EMqGSKkChauHCgJH6Eo-2" edge="1"><mxGeometry width="100" relative="1" as="geometry"><mxPoint x="375" y="310" as="sourcePoint"/><mxPoint x="475" y="310" as="targetPoint"/></mxGeometry></mxCell><mxCell id="3EMqGSKkChauHCgJH6Eo-37" style="edgeStyle=orthogonalEdgeStyle;shape=link;rounded=0;orthogonalLoop=1;jettySize=auto;html=1;exitX=0.93;exitY=0.5;exitDx=0;exitDy=0;exitPerimeter=0;entryX=0.25;entryY=1;entryDx=0;entryDy=0;" parent="mdFqDs2wwSjSR7bPOeGR-1" source="3EMqGSKkChauHCgJH6Eo-4" target="3EMqGSKkChauHCgJH6Eo-9" edge="1"><mxGeometry relative="1" as="geometry"/></mxCell><mxCell id="3EMqGSKkChauHCgJH6Eo-4" value="Memory" style="strokeWidth=2;html=1;shape=mxgraph.flowchart.stored_data;whiteSpace=wrap;fillColor=#dae8fc;strokeColor=#6c8ebf;" parent="mdFqDs2wwSjSR7bPOeGR-1" vertex="1"><mxGeometry x="205" y="450" width="100" height="60" as="geometry"/></mxCell><mxCell id="3EMqGSKkChauHCgJH6Eo-6" value="" style="shape=link;html=1;exitX=1;exitY=0.5;exitDx=0;exitDy=0;exitPerimeter=0;entryX=0;entryY=0.5;entryDx=0;entryDy=0;entryPerimeter=0;" parent="mdFqDs2wwSjSR7bPOeGR-1" source="3EMqGSKkChauHCgJH6Eo-1" target="3EMqGSKkChauHCgJH6Eo-0" edge="1"><mxGeometry width="100" relative="1" as="geometry"><mxPoint x="308" y="490" as="sourcePoint"/><mxPoint x="440" y="490" as="targetPoint"/></mxGeometry></mxCell><mxCell id="3EMqGSKkChauHCgJH6Eo-7" value="MemoryController" style="shape=process;whiteSpace=wrap;html=1;backgroundOutline=1;fillColor=#f8cecc;strokeColor=#b85450;" parent="mdFqDs2wwSjSR7bPOeGR-1" vertex="1"><mxGeometry x="195" y="250" width="120" height="60" as="geometry"/></mxCell><mxCell id="3EMqGSKkChauHCgJH6Eo-8" value="" style="shape=link;html=1;exitX=0.5;exitY=1;exitDx=0;exitDy=0;entryX=0.5;entryY=0;entryDx=0;entryDy=0;entryPerimeter=0;" parent="mdFqDs2wwSjSR7bPOeGR-1" source="3EMqGSKkChauHCgJH6Eo-7" target="3EMqGSKkChauHCgJH6Eo-4" edge="1"><mxGeometry width="100" relative="1" as="geometry"><mxPoint x="308" y="480" as="sourcePoint"/><mxPoint x="440" y="480" as="targetPoint"/></mxGeometry></mxCell><mxCell id="3EMqGSKkChauHCgJH6Eo-38" style="edgeStyle=orthogonalEdgeStyle;shape=link;rounded=0;orthogonalLoop=1;jettySize=auto;html=1;exitX=0.75;exitY=1;exitDx=0;exitDy=0;entryX=0.5;entryY=0;entryDx=0;entryDy=0;entryPerimeter=0;" parent="mdFqDs2wwSjSR7bPOeGR-1" source="3EMqGSKkChauHCgJH6Eo-9" target="3EMqGSKkChauHCgJH6Eo-1" edge="1"><mxGeometry relative="1" as="geometry"/></mxCell><mxCell id="3EMqGSKkChauHCgJH6Eo-9" value="Operator" style="rounded=1;whiteSpace=wrap;html=1;fillColor=#dae8fc;strokeColor=#6c8ebf;" parent="mdFqDs2wwSjSR7bPOeGR-1" vertex="1"><mxGeometry x="335" y="350" width="120" height="60" as="geometry"/></mxCell><mxCell id="3EMqGSKkChauHCgJH6Eo-32" style="edgeStyle=orthogonalEdgeStyle;shape=link;rounded=0;orthogonalLoop=1;jettySize=auto;html=1;exitX=0.5;exitY=0.88;exitDx=0;exitDy=0;exitPerimeter=0;entryX=0.5;entryY=0;entryDx=0;entryDy=0;entryPerimeter=0;" parent="mdFqDs2wwSjSR7bPOeGR-1" source="3EMqGSKkChauHCgJH6Eo-12" target="3EMqGSKkChauHCgJH6Eo-1" edge="1"><mxGeometry relative="1" as="geometry"/></mxCell><mxCell id="3EMqGSKkChauHCgJH6Eo-12" value="Devices" style="strokeWidth=2;html=1;shape=mxgraph.flowchart.multi-document;whiteSpace=wrap;fillColor=#dae8fc;strokeColor=#6c8ebf;" parent="mdFqDs2wwSjSR7bPOeGR-1" vertex="1"><mxGeometry x="511" y="350" width="88" height="60" as="geometry"/></mxCell><mxCell id="3EMqGSKkChauHCgJH6Eo-36" style="edgeStyle=orthogonalEdgeStyle;shape=link;rounded=0;orthogonalLoop=1;jettySize=auto;html=1;exitX=0.5;exitY=1;exitDx=0;exitDy=0;entryX=0.5;entryY=0;entryDx=0;entryDy=0;entryPerimeter=0;" parent="mdFqDs2wwSjSR7bPOeGR-1" source="3EMqGSKkChauHCgJH6Eo-14" target="3EMqGSKkChauHCgJH6Eo-12" edge="1"><mxGeometry relative="1" as="geometry"/></mxCell><mxCell id="3EMqGSKkChauHCgJH6Eo-14" value="DeviceController" style="shape=process;whiteSpace=wrap;html=1;backgroundOutline=1;fillColor=#f8cecc;strokeColor=#b85450;" parent="mdFqDs2wwSjSR7bPOeGR-1" vertex="1"><mxGeometry x="495" y="250" width="120" height="60" as="geometry"/></mxCell><mxCell id="3EMqGSKkChauHCgJH6Eo-23" style="shape=link;rounded=0;orthogonalLoop=1;jettySize=auto;html=1;exitX=0;exitY=0.5;exitDx=0;exitDy=0;entryX=0.5;entryY=0;entryDx=0;entryDy=0;edgeStyle=orthogonalEdgeStyle;" parent="mdFqDs2wwSjSR7bPOeGR-1" source="3EMqGSKkChauHCgJH6Eo-17" target="3EMqGSKkChauHCgJH6Eo-7" edge="1"><mxGeometry relative="1" as="geometry"/></mxCell><mxCell id="3EMqGSKkChauHCgJH6Eo-24" style="edgeStyle=orthogonalEdgeStyle;shape=link;rounded=0;orthogonalLoop=1;jettySize=auto;html=1;exitX=1;exitY=0.5;exitDx=0;exitDy=0;entryX=0.5;entryY=0;entryDx=0;entryDy=0;" parent="mdFqDs2wwSjSR7bPOeGR-1" source="3EMqGSKkChauHCgJH6Eo-17" target="3EMqGSKkChauHCgJH6Eo-2" edge="1"><mxGeometry relative="1" as="geometry"/></mxCell><mxCell id="3EMqGSKkChauHCgJH6Eo-30" style="edgeStyle=orthogonalEdgeStyle;shape=link;rounded=0;orthogonalLoop=1;jettySize=auto;html=1;exitX=0.25;exitY=1;exitDx=0;exitDy=0;entryX=0.5;entryY=0;entryDx=0;entryDy=0;" parent="mdFqDs2wwSjSR7bPOeGR-1" source="3EMqGSKkChauHCgJH6Eo-17" target="3EMqGSKkChauHCgJH6Eo-9" edge="1"><mxGeometry relative="1" as="geometry"/></mxCell><mxCell id="3EMqGSKkChauHCgJH6Eo-31" style="edgeStyle=orthogonalEdgeStyle;shape=link;rounded=0;orthogonalLoop=1;jettySize=auto;html=1;exitX=0.75;exitY=1;exitDx=0;exitDy=0;entryX=0.5;entryY=0;entryDx=0;entryDy=0;" parent="mdFqDs2wwSjSR7bPOeGR-1" source="3EMqGSKkChauHCgJH6Eo-17" target="3EMqGSKkChauHCgJH6Eo-14" edge="1"><mxGeometry relative="1" as="geometry"/></mxCell><mxCell id="3EMqGSKkChauHCgJH6Eo-17" value="ProcessController" style="shape=process;whiteSpace=wrap;html=1;backgroundOutline=1;fillColor=#f8cecc;strokeColor=#b85450;" parent="mdFqDs2wwSjSR7bPOeGR-1" vertex="1"><mxGeometry x="420" y="110" width="120" height="60" as="geometry"/></mxCell><mxCell id="3EMqGSKkChauHCgJH6Eo-22" value="Physical Device" style="strokeWidth=2;html=1;shape=mxgraph.flowchart.annotation_2;align=left;labelPosition=right;pointerEvents=1;" parent="mdFqDs2wwSjSR7bPOeGR-1" vertex="1"><mxGeometry x="65" y="350" width="50" height="160" as="geometry"/></mxCell><mxCell id="3EMqGSKkChauHCgJH6Eo-35" value="OS Core" style="strokeWidth=2;html=1;shape=mxgraph.flowchart.annotation_2;align=left;labelPosition=right;pointerEvents=1;" parent="mdFqDs2wwSjSR7bPOeGR-1" vertex="1"><mxGeometry x="65" y="110" width="50" height="200" as="geometry"/></mxCell><mxCell id="3EMqGSKkChauHCgJH6Eo-39" value="" style="shape=folder;fontStyle=1;spacingTop=10;tabWidth=40;tabHeight=14;tabPosition=left;html=1;" parent="mdFqDs2wwSjSR7bPOeGR-1" vertex="1"><mxGeometry x="65" y="590" width="735" height="460" as="geometry"/></mxCell><mxCell id="3EMqGSKkChauHCgJH6Eo-40" value="Core" style="shape=module;align=left;spacingLeft=20;align=center;verticalAlign=top;" parent="mdFqDs2wwSjSR7bPOeGR-1" vertex="1"><mxGeometry x="100" y="620" width="200" height="200" as="geometry"/></mxCell><mxCell id="3EMqGSKkChauHCgJH6Eo-41" value="Libs" style="shape=module;align=left;spacingLeft=20;align=center;verticalAlign=top;" parent="mdFqDs2wwSjSR7bPOeGR-1" vertex="1"><mxGeometry x="100" y="830" width="200" height="200" as="geometry"/></mxCell><mxCell id="3EMqGSKkChauHCgJH6Eo-42" value="Tools" style="shape=module;align=left;spacingLeft=20;align=center;verticalAlign=top;" parent="mdFqDs2wwSjSR7bPOeGR-1" vertex="1"><mxGeometry x="380" y="620" width="200" height="200" as="geometry"/></mxCell><mxCell id="3EMqGSKkChauHCgJH6Eo-43" value="«interface»&lt;br&gt;&lt;b&gt;MemoryController&lt;/b&gt;" style="html=1;" parent="mdFqDs2wwSjSR7bPOeGR-1" vertex="1"><mxGeometry x="145" y="650" width="110" height="30" as="geometry"/></mxCell><mxCell id="3EMqGSKkChauHCgJH6Eo-44" value="«interface»&lt;br&gt;&lt;b&gt;ProcessController&lt;/b&gt;" style="html=1;" parent="mdFqDs2wwSjSR7bPOeGR-1" vertex="1"><mxGeometry x="145" y="680" width="110" height="30" as="geometry"/></mxCell><mxCell id="3EMqGSKkChauHCgJH6Eo-45" value="«interface»&lt;br&gt;&lt;b&gt;DeviceController&lt;/b&gt;" style="html=1;" parent="mdFqDs2wwSjSR7bPOeGR-1" vertex="1"><mxGeometry x="145" y="710" width="110" height="30" as="geometry"/></mxCell><mxCell id="3EMqGSKkChauHCgJH6Eo-46" value="«interface»&lt;br&gt;&lt;b&gt;FileSystem&lt;/b&gt;" style="html=1;" parent="mdFqDs2wwSjSR7bPOeGR-1" vertex="1"><mxGeometry x="145" y="740" width="110" height="30" as="geometry"/></mxCell><mxCell id="3EMqGSKkChauHCgJH6Eo-47" value="«interface»&lt;br&gt;&lt;b&gt;NetworkController&lt;/b&gt;" style="html=1;" parent="mdFqDs2wwSjSR7bPOeGR-1" vertex="1"><mxGeometry x="145" y="770" width="110" height="30" as="geometry"/></mxCell><mxCell id="3EMqGSKkChauHCgJH6Eo-48" value="«interface»&lt;br&gt;&lt;b&gt;DataStructure&lt;/b&gt;" style="html=1;" parent="mdFqDs2wwSjSR7bPOeGR-1" vertex="1"><mxGeometry x="145" y="860" width="110" height="30" as="geometry"/></mxCell><mxCell id="3EMqGSKkChauHCgJH6Eo-49" value="«interface»&lt;br&gt;&lt;b&gt;SystemUtils&lt;/b&gt;" style="html=1;" parent="mdFqDs2wwSjSR7bPOeGR-1" vertex="1"><mxGeometry x="145" y="890" width="110" height="30" as="geometry"/></mxCell><mxCell id="3EMqGSKkChauHCgJH6Eo-50" value="«interface»&lt;br&gt;&lt;b&gt;IOFormater&lt;/b&gt;" style="html=1;" parent="mdFqDs2wwSjSR7bPOeGR-1" vertex="1"><mxGeometry x="145" y="920" width="110" height="30" as="geometry"/></mxCell><mxCell id="3EMqGSKkChauHCgJH6Eo-51" value="«interface»&lt;br&gt;&lt;b&gt;Algorithm&lt;/b&gt;" style="html=1;" parent="mdFqDs2wwSjSR7bPOeGR-1" vertex="1"><mxGeometry x="145" y="950" width="110" height="30" as="geometry"/></mxCell><mxCell id="3EMqGSKkChauHCgJH6Eo-52" value="«interface»&lt;br&gt;&lt;b&gt;BasicSturcutres&lt;/b&gt;" style="html=1;" parent="mdFqDs2wwSjSR7bPOeGR-1" vertex="1"><mxGeometry x="145" y="980" width="110" height="30" as="geometry"/></mxCell><mxCell id="3EMqGSKkChauHCgJH6Eo-53" value="«interface»&lt;br&gt;&lt;b&gt;IMGGenerator&lt;/b&gt;" style="html=1;" parent="mdFqDs2wwSjSR7bPOeGR-1" vertex="1"><mxGeometry x="430" y="650" width="110" height="30" as="geometry"/></mxCell><mxCell id="3EMqGSKkChauHCgJH6Eo-54" value="«interface»&lt;br&gt;&lt;b&gt;BuildTools&lt;/b&gt;" style="html=1;" parent="mdFqDs2wwSjSR7bPOeGR-1" vertex="1"><mxGeometry x="430" y="680" width="110" height="30" as="geometry"/></mxCell></root></mxGraphModel></diagram></mxfile>